<?xml version="1.0" encoding="UTF-8" standalone="no"?>
<svg
   xmlns:dc="http://purl.org/dc/elements/1.1/"
   xmlns:cc="http://creativecommons.org/ns#"
   xmlns:rdf="http://www.w3.org/1999/02/22-rdf-syntax-ns#"
   xmlns:svg="http://www.w3.org/2000/svg"
   xmlns="http://www.w3.org/2000/svg"
   xmlns:sodipodi="http://sodipodi.sourceforge.net/DTD/sodipodi-0.dtd"
   xmlns:inkscape="http://www.inkscape.org/namespaces/inkscape"
   version="1.1"
   id="svg851"
   xml:space="preserve"
   width="576"
   height="768.19336"
   viewBox="0 0 576 768.19336"
   sodipodi:docname="spaship-branding.svg"
   inkscape:version="1.0.2 (e86c870879, 2021-01-15)"><metadata
     id="metadata857"><rdf:RDF><cc:Work
         rdf:about=""><dc:format>image/svg+xml</dc:format><dc:type
           rdf:resource="http://purl.org/dc/dcmitype/StillImage" /><dc:title></dc:title></cc:Work></rdf:RDF></metadata><defs
     id="defs855"><clipPath
       clipPathUnits="userSpaceOnUse"
       id="clipPath869"><path
         d="M 0,576.145 H 432 V 0 H 0 Z"
         id="path867" /></clipPath><clipPath
       clipPathUnits="userSpaceOnUse"
       id="clipPath975"><path
         d="M 0,576.145 H 432 V 0 H 0 Z"
         id="path973" /></clipPath><clipPath
       clipPathUnits="userSpaceOnUse"
       id="clipPath1001"><path
         d="M 0,576.145 H 432 V 0 H 0 Z"
         id="path999" /></clipPath><clipPath
       clipPathUnits="userSpaceOnUse"
       id="clipPath1051"><path
         d="M 66.1194,276.597 H 360.93 V 176.894 H 66.1194 Z"
         id="path1049" /></clipPath><clipPath
       clipPathUnits="userSpaceOnUse"
       id="clipPath1079"><path
         d="M 66.216,276.597 H 360.93 V 176.644 H 66.216 Z"
         id="path1077" /></clipPath><clipPath
       clipPathUnits="userSpaceOnUse"
       id="clipPath1093"><path
         d="M 90.0065,249.93 H 337.14 V 203.311 H 90.0065 Z"
         id="path1091" /></clipPath><clipPath
       clipPathUnits="userSpaceOnUse"
       id="clipPath1107"><path
         d="m 0,144.323 h 432 v -0.5 H 0 Z"
         id="path1105" /></clipPath><clipPath
       clipPathUnits="userSpaceOnUse"
       id="clipPath1123"><path
         d="m 66.4658,173.728 h 73.0652 v -7.895 H 66.4658 Z"
         id="path1121" /></clipPath></defs><sodipodi:namedview
     pagecolor="#ffffff"
     bordercolor="#666666"
     borderopacity="1"
     objecttolerance="10"
     gridtolerance="10"
     guidetolerance="10"
     inkscape:pageopacity="0"
     inkscape:pageshadow="2"
     inkscape:window-width="1920"
     inkscape:window-height="1025"
     id="namedview853"
     showgrid="false"
     inkscape:zoom="0.72165648"
     inkscape:cx="507.77527"
     inkscape:cy="520.9894"
     inkscape:window-x="0"
     inkscape:window-y="0"
     inkscape:window-maximized="1"
     inkscape:current-layer="g859" /><g
     id="g859"
     inkscape:groupmode="layer"
     inkscape:label="spaship-branding"
     transform="matrix(1.3333333,0,0,-1.3333333,0,768.19333)"><path
       d="m 0,431.795 h 432 v 144 H 0 Z"
       style="fill:#2e2d2d;fill-opacity:1;fill-rule:nonzero;stroke:none"
       id="path861" /><g
       id="g863"><g
         id="g865"
         clip-path="url(#clipPath869)"><g
           id="g871"
           transform="translate(94.9365,501.8207)"><path
             d="m 0,0 c 4.144,-3.364 7.41,-4.729 11.359,-4.729 3.851,0 6.143,1.219 6.143,3.315 0,1.901 -1.316,2.828 -4.729,3.413 L 5.265,3.315 c -5.557,0.975 -8.629,4.339 -8.629,9.36 0,6.631 5.265,10.628 13.992,10.628 5.07,0 10.579,-1.852 14.333,-4.875 l -4.437,-6.191 c -3.607,2.779 -6.874,4.046 -10.481,4.046 -3.413,0 -5.509,-1.121 -5.509,-2.974 0,-1.706 1.17,-2.535 4.047,-3.022 l 7.068,-1.17 c 6.582,-1.073 10.043,-4.437 10.043,-9.702 0,-6.923 -5.704,-11.213 -14.966,-11.213 -5.51,0 -11.165,2.096 -15.406,5.704 z"
             style="fill:#ffffff;fill-opacity:1;fill-rule:nonzero;stroke:none"
             id="path873" /></g><g
           id="g875"
           transform="translate(132.8696,517.4702)"><path
             d="m 0,0 v -7.8 h 8.629 c 2.438,0 4.095,1.56 4.095,3.851 C 12.724,-1.609 11.067,0 8.629,0 Z M -8.385,7.167 H 9.604 c 6.728,0 11.603,-4.681 11.603,-11.067 0,-6.192 -4.973,-10.823 -11.603,-10.823 H 0 V -26.96 h -8.385 z"
             style="fill:#ffffff;fill-opacity:1;fill-rule:nonzero;stroke:none"
             id="path877" /></g><g
           id="g879"
           transform="translate(172.5576,505.4281)"><path
             d="M 0,0 -4.095,10.92 -8.288,0 Z M -8.727,19.209 H 0.877 L 14.674,-14.918 H 5.606 l -3.12,8.239 h -13.309 l -3.169,-8.239 h -8.726 z"
             style="fill:#ffffff;fill-opacity:1;fill-rule:nonzero;stroke:none"
             id="path881" /></g><g
           id="g883"
           transform="translate(192.063,498.7006)"><path
             d="m 0,0 c 3.266,-1.95 5.752,-2.779 8.385,-2.779 2.584,0 4.241,0.78 4.241,2.048 0,0.975 -0.828,1.56 -2.632,1.852 l -5.119,0.78 c -5.119,0.78 -7.898,3.462 -7.898,7.703 0,5.216 4.193,8.385 11.116,8.385 3.754,0 7.556,-1.072 10.774,-3.12 l -3.754,-5.07 c -2.779,1.609 -5.265,2.34 -7.801,2.34 -2.047,0 -3.363,-0.731 -3.363,-1.852 0,-1.073 0.828,-1.609 3.022,-1.951 L 12.09,7.557 c 5.071,-0.732 7.947,-3.462 7.947,-7.508 0,-5.022 -4.924,-8.727 -11.603,-8.727 -4.875,0 -9.165,1.17 -12.188,3.364 z"
             style="fill:#ffffff;fill-opacity:1;fill-rule:nonzero;stroke:none"
             id="path885" /></g><g
           id="g887"
           transform="translate(215.1255,524.6367)"><path
             d="m 0,0 7.898,1.706 v -11.798 c 1.901,1.463 4.29,2.243 6.923,2.243 6.045,0 10.287,-4.29 10.287,-10.384 v -15.893 h -7.899 v 14.82 c 0,2.827 -1.852,4.68 -4.679,4.68 -1.999,0 -3.56,-0.731 -4.632,-2.047 V -34.126 H 0 Z"
             style="fill:#ffffff;fill-opacity:1;fill-rule:nonzero;stroke:none"
             id="path889" /></g><path
           d="m 252.814,490.51 h -7.897 v 25.79 h 7.897 z m -8.288,32.518 c 0,2.388 1.951,4.339 4.34,4.339 2.389,0 4.339,-1.951 4.339,-4.339 0,-2.389 -1.95,-4.339 -4.339,-4.339 -2.389,0 -4.34,1.95 -4.34,4.339"
           style="fill:#ffffff;fill-opacity:1;fill-rule:nonzero;stroke:none"
           id="path891" /><g
           id="g893"
           transform="translate(265.5889,507.8656)"><path
             d="m 0,0 v -9.019 c 1.365,-1.268 3.315,-1.999 5.461,-1.999 3.852,0 6.776,2.828 6.776,6.533 0,3.705 -2.973,6.533 -6.776,6.533 C 3.267,2.048 1.414,1.365 0,0 m -7.897,8.434 h 7.8 V 6.533 c 1.998,1.463 4.388,2.242 6.923,2.242 7.362,0 13.162,-5.85 13.162,-13.26 0,-7.411 -5.898,-13.212 -13.406,-13.212 -2.389,0 -4.632,0.585 -6.582,1.707 v -11.652 h -7.897 z"
             style="fill:#ffffff;fill-opacity:1;fill-rule:nonzero;stroke:none"
             id="path895" /></g><g
           id="g897"
           transform="translate(319.8232,498.6859)"><path
             d="m 0,0 5.108,5.108 -5.109,5.11 -15.542,-5.109 z"
             style="fill:#f9d207;fill-opacity:1;fill-rule:nonzero;stroke:none"
             id="path899" /></g><g
           id="g901"
           transform="translate(319.8232,498.6859)"><path
             d="M 0,0 -15.543,5.109 -0.001,10.218 -3.17,13.386 -28.353,5.109 -3.169,-3.169 Z"
             style="fill:#f9b00c;fill-opacity:1;fill-rule:nonzero;stroke:none"
             id="path903" /></g><g
           id="g905"
           transform="translate(336.8887,503.7953)"><path
             d="m 0,0 v 0 l -11.234,11.235 -8.964,8.964 -5.98,-5.98 5.943,-5.942 3.169,-3.169 5.109,-5.109 -5.108,-5.108 -3.169,-3.169 -5.943,-5.942 5.98,-5.98 20.198,20.199 v 0 z"
             style="fill:#ffffff;fill-opacity:1;fill-rule:nonzero;stroke:none"
             id="path907" /></g><g
           id="g909"
           transform="translate(94.9365,357.4325)"><path
             d="m 0,0 c 4.144,-3.364 7.41,-4.729 11.359,-4.729 3.851,0 6.143,1.218 6.143,3.315 0,1.901 -1.316,2.827 -4.729,3.412 L 5.265,3.314 c -5.557,0.976 -8.629,4.339 -8.629,9.361 0,6.631 5.265,10.628 13.992,10.628 5.07,0 10.579,-1.853 14.333,-4.875 l -4.437,-6.192 c -3.607,2.78 -6.874,4.047 -10.481,4.047 -3.413,0 -5.509,-1.122 -5.509,-2.974 0,-1.706 1.17,-2.536 4.047,-3.023 l 7.068,-1.17 c 6.582,-1.072 10.043,-4.436 10.043,-9.701 0,-6.923 -5.704,-11.213 -14.966,-11.213 -5.51,0 -11.165,2.096 -15.406,5.703 z"
             style="fill:#2e2d2d;fill-opacity:1;fill-rule:nonzero;stroke:none"
             id="path911" /></g><g
           id="g913"
           transform="translate(132.8696,373.0819)"><path
             d="m 0,0 v -7.801 h 8.629 c 2.438,0 4.095,1.561 4.095,3.852 C 12.724,-1.609 11.067,0 8.629,0 Z M -8.385,7.166 H 9.604 c 6.728,0 11.603,-4.68 11.603,-11.066 0,-6.192 -4.973,-10.824 -11.603,-10.824 H 0 V -26.96 h -8.385 z"
             style="fill:#2e2d2d;fill-opacity:1;fill-rule:nonzero;stroke:none"
             id="path915" /></g><g
           id="g917"
           transform="translate(172.5576,361.0399)"><path
             d="M 0,0 -4.095,10.92 -8.288,0 Z M -8.727,19.208 H 0.877 L 14.674,-14.918 H 5.606 l -3.12,8.239 h -13.309 l -3.169,-8.239 h -8.726 z"
             style="fill:#2e2d2d;fill-opacity:1;fill-rule:nonzero;stroke:none"
             id="path919" /></g><g
           id="g921"
           transform="translate(192.063,354.3124)"><path
             d="m 0,0 c 3.266,-1.95 5.752,-2.779 8.385,-2.779 2.584,0 4.241,0.78 4.241,2.048 0,0.974 -0.828,1.559 -2.632,1.852 l -5.119,0.78 c -5.119,0.78 -7.898,3.461 -7.898,7.703 0,5.216 4.193,8.385 11.116,8.385 3.754,0 7.556,-1.072 10.774,-3.12 l -3.754,-5.07 c -2.779,1.608 -5.265,2.34 -7.801,2.34 -2.047,0 -3.363,-0.732 -3.363,-1.853 0,-1.072 0.828,-1.608 3.022,-1.95 L 12.09,7.557 c 5.071,-0.732 7.947,-3.462 7.947,-7.508 0,-5.022 -4.924,-8.727 -11.603,-8.727 -4.875,0 -9.165,1.17 -12.188,3.364 z"
             style="fill:#2e2d2d;fill-opacity:1;fill-rule:nonzero;stroke:none"
             id="path923" /></g><g
           id="g925"
           transform="translate(215.1255,380.248)"><path
             d="m 0,0 7.898,1.706 v -11.798 c 1.901,1.463 4.29,2.243 6.923,2.243 6.045,0 10.287,-4.29 10.287,-10.384 v -15.893 h -7.899 v 14.82 c 0,2.827 -1.852,4.681 -4.679,4.681 -1.999,0 -3.56,-0.731 -4.632,-2.048 V -34.126 H 0 Z"
             style="fill:#2e2d2d;fill-opacity:1;fill-rule:nonzero;stroke:none"
             id="path927" /></g><path
           d="m 252.814,346.122 h -7.897 v 25.789 h 7.897 z m -8.288,32.518 c 0,2.388 1.951,4.338 4.34,4.338 2.389,0 4.339,-1.95 4.339,-4.338 0,-2.39 -1.95,-4.339 -4.339,-4.339 -2.389,0 -4.34,1.949 -4.34,4.339"
           style="fill:#2e2d2d;fill-opacity:1;fill-rule:nonzero;stroke:none"
           id="path929" /><g
           id="g931"
           transform="translate(265.5889,363.4774)"><path
             d="m 0,0 v -9.02 c 1.365,-1.267 3.315,-1.998 5.461,-1.998 3.852,0 6.776,2.828 6.776,6.533 0,3.705 -2.973,6.533 -6.776,6.533 C 3.267,2.048 1.414,1.365 0,0 m -7.897,8.434 h 7.8 V 6.532 c 1.998,1.463 4.388,2.243 6.923,2.243 7.362,0 13.162,-5.85 13.162,-13.26 0,-7.411 -5.898,-13.212 -13.406,-13.212 -2.389,0 -4.632,0.585 -6.582,1.707 v -11.653 h -7.897 z"
             style="fill:#2e2d2d;fill-opacity:1;fill-rule:nonzero;stroke:none"
             id="path933" /></g><g
           id="g935"
           transform="translate(319.8232,354.2978)"><path
             d="m 0,0 5.108,5.108 -5.109,5.11 -15.542,-5.109 z"
             style="fill:#f9d207;fill-opacity:1;fill-rule:nonzero;stroke:none"
             id="path937" /></g><g
           id="g939"
           transform="translate(319.8232,354.2978)"><path
             d="M 0,0 -15.543,5.109 -0.001,10.218 -3.17,13.387 -28.353,5.109 -3.169,-3.169 Z"
             style="fill:#f9b00c;fill-opacity:1;fill-rule:nonzero;stroke:none"
             id="path941" /></g><g
           id="g943"
           transform="translate(336.8896,359.4062)"><path
             d="m 0,0 -0.001,0.001 v 0.001 l -11.234,11.234 -8.964,8.964 -5.98,-5.979 5.943,-5.943 3.169,-3.169 5.109,-5.109 -5.108,-5.108 -3.169,-3.169 -5.943,-5.943 5.98,-5.978 z"
             style="fill:#2e2d2d;fill-opacity:1;fill-rule:nonzero;stroke:none"
             id="path945" /></g><path
           d="M 42.024,92.268 H 15.683 v 26.342 h 26.341 z"
           style="fill:#2e2d2d;fill-opacity:1;fill-rule:nonzero;stroke:none"
           id="path947" /><path
           d="M 42.024,58.902 H 15.683 v 26.341 h 26.341 z"
           style="fill:#f9b00c;fill-opacity:1;fill-rule:nonzero;stroke:none"
           id="path949" /><path
           d="M 42.024,25.536 H 15.683 v 26.342 h 26.341 z"
           style="fill:#f9d207;fill-opacity:1;fill-rule:nonzero;stroke:none"
           id="path951" /></g></g><text
       transform="matrix(1,0,0,-1,280.1641,98.0762)"
       style="font-variant:normal;font-weight:900;font-stretch:normal;font-size:12px;font-family:'Red Hat Display Black';-inkscape-font-specification:RedHatDisplay-Black;writing-mode:lr-tb;fill:#2e2d2d;fill-opacity:1;fill-rule:nonzero;stroke:none"
       id="text955"><tspan
         x="0 7.9559999 15.1548 22.930799 25.2708 34.125599 40.737598 46.113602 48.453602 57.3936 60.537601 66.645599 74.4216 77.565598 84.2976 90.573601 93.669601 96.009598 104.4696 107.6136 114.4656 120.9336"
         y="0"
         sodipodi:role="line"
         id="tspan953">Red Hat Display, Black</tspan></text><text
       transform="matrix(1,0,0,-1,280.6641,111.6396)"
       style="font-variant:normal;font-weight:bold;font-stretch:normal;font-size:7px;font-family:'Red Hat Display';-inkscape-font-specification:RedHatDisplay-Bold;writing-mode:lr-tb;fill:#2e2d2d;fill-opacity:1;fill-rule:nonzero;stroke:none"
       id="text967"><tspan
         x="0 4.3400002 10.241 15.694"
         y="0"
         sodipodi:role="line"
         id="tspan957">FONT</tspan><tspan
         x="-229.85201 -225.218 -220.99699 -215.52299 -210.88901 -205.506 -203.392 -198.41499 -196.798 -191.03 -185.99699 -181.72701"
         y="6.2020001"
         sodipodi:role="line"
         id="tspan959">SPASHIP GRAY</tspan><tspan
         x="-229.85201 -224.46899 -220.017 -215.565 -211.11301 -206.661 -202.209"
         y="14.602"
         sodipodi:role="line"
         id="tspan961">#333333</tspan><tspan
         x="-229.85201 -225.218 -219.317 -214.606 -209.272 -204.30901 -202.692 -196.791 -191.758 -186.424 -180.97099 -175.203"
         y="39.570999"
         sodipodi:role="line"
         id="tspan963">SOLAR ORANGE</tspan><tspan
         x="-229.85201 -224.46899 -219.786 -214.41 -209.36301 -204.827 -202.174"
         y="47.971001"
         sodipodi:role="line"
         id="tspan965">#FDB716</tspan></text><g
       id="g969"><g
         id="g971"
         clip-path="url(#clipPath975)"><path
           d="m 159.81,98.075 h -14.727 v 14.727 h 14.727 z"
           style="fill:#191716;fill-opacity:1;fill-rule:nonzero;stroke:none"
           id="path977" /><path
           d="M 159.81,64.71 H 145.083 V 79.436 H 159.81 Z"
           style="fill:#3b61b6;fill-opacity:1;fill-rule:nonzero;stroke:none"
           id="path979" /></g></g><text
       transform="matrix(1,0,0,-1,167.4038,105.4395)"
       style="font-variant:normal;font-weight:bold;font-stretch:normal;font-size:7px;font-family:'Red Hat Display';-inkscape-font-specification:RedHatDisplay-Bold;writing-mode:lr-tb;fill:#2e2d2d;fill-opacity:1;fill-rule:nonzero;stroke:none"
       id="text993"><tspan
         x="0 4.7740002 9.4989996 14.532 19.306 20.923 25.969999 30.681 35.741299 40.977299"
         y="0"
         sodipodi:role="line"
         id="tspan981">TEXT BLACK</tspan><tspan
         x="0 5.3829999 8.0360003 12.327 14.98 19.271 21.924"
         y="8.3999996"
         sodipodi:role="line"
         id="tspan983">#151515</tspan><tspan
         x="0 5.2849998 7.3990002 9.0159998 14.063 18.3967 23.6817"
         y="33.368999"
         sodipodi:role="line"
         id="tspan985">UI BLUE</tspan><tspan
         x="0 5.3829999 10.388 15.393 20.055 24.716999 29.8123"
         y="41.769001"
         sodipodi:role="line"
         id="tspan987">#0066CC</tspan><tspan
         x="-116.592 -111.258 -104.874 -99.540001 -94.577003 -92.462997 -87.857002 -83.6353 -77.734299 -76.117302 -71.434303 -66.723297 -61.389301 -56.4263"
         y="66.731003"
         sodipodi:role="line"
         id="tspan989">AMARILLO FLARE</tspan><tspan
         x="-116.592 -111.209 -106.526 -101.801 -96.425003 -91.503998 -86.653702"
         y="75.130997"
         sodipodi:role="line"
         id="tspan991">#FED402</tspan></text><g
       id="g995"><g
         id="g997"
         clip-path="url(#clipPath1001)"><g
           id="g1003"
           transform="translate(192.063,354.3124)"><path
             d="m 0,0 c 3.266,-1.95 5.752,-2.779 8.385,-2.779 2.584,0 4.241,0.78 4.241,2.048 0,0.974 -0.828,1.559 -2.632,1.852 l -5.119,0.78 c -5.119,0.78 -7.898,3.461 -7.898,7.703 0,5.216 4.193,8.385 11.116,8.385 3.754,0 7.556,-1.072 10.774,-3.12 l -3.754,-5.07 c -2.779,1.608 -5.265,2.34 -7.801,2.34 -2.047,0 -3.363,-0.732 -3.363,-1.853 0,-1.072 0.828,-1.608 3.022,-1.95 L 12.09,7.557 c 5.071,-0.732 7.947,-3.462 7.947,-7.508 0,-5.022 -4.924,-8.727 -11.603,-8.727 -4.875,0 -9.165,1.17 -12.188,3.364 z"
             style="fill:#2e2d2d;fill-opacity:1;fill-rule:nonzero;stroke:none"
             id="path1005" /></g><g
           id="g1007"
           transform="translate(94.9365,225.1581)"><path
             d="m 0,0 c 4.144,-3.364 7.41,-4.729 11.359,-4.729 3.851,0 6.143,1.218 6.143,3.315 0,1.901 -1.316,2.827 -4.729,3.412 L 5.265,3.314 c -5.557,0.976 -8.629,4.339 -8.629,9.361 0,6.631 5.265,10.628 13.992,10.628 5.07,0 10.579,-1.853 14.333,-4.875 l -4.437,-6.192 c -3.607,2.78 -6.874,4.047 -10.481,4.047 -3.413,0 -5.509,-1.122 -5.509,-2.974 0,-1.706 1.17,-2.536 4.047,-3.023 l 7.068,-1.17 c 6.582,-1.072 10.043,-4.436 10.043,-9.701 0,-6.923 -5.704,-11.213 -14.966,-11.213 -5.51,0 -11.165,2.096 -15.406,5.703 z"
             style="fill:#2e2d2d;fill-opacity:1;fill-rule:nonzero;stroke:none"
             id="path1009" /></g><g
           id="g1011"
           transform="translate(132.8696,240.8075)"><path
             d="m 0,0 v -7.801 h 8.629 c 2.438,0 4.095,1.561 4.095,3.852 C 12.724,-1.609 11.067,0 8.629,0 Z M -8.385,7.166 H 9.604 c 6.728,0 11.603,-4.68 11.603,-11.066 0,-6.192 -4.973,-10.824 -11.603,-10.824 H 0 V -26.96 h -8.385 z"
             style="fill:#2e2d2d;fill-opacity:1;fill-rule:nonzero;stroke:none"
             id="path1013" /></g><g
           id="g1015"
           transform="translate(172.5576,228.7655)"><path
             d="M 0,0 -4.095,10.92 -8.288,0 Z M -8.727,19.208 H 0.877 L 14.674,-14.918 H 5.606 l -3.12,8.239 h -13.309 l -3.169,-8.239 h -8.726 z"
             style="fill:#2e2d2d;fill-opacity:1;fill-rule:nonzero;stroke:none"
             id="path1017" /></g><g
           id="g1019"
           transform="translate(192.063,222.038)"><path
             d="m 0,0 c 3.266,-1.95 5.752,-2.779 8.385,-2.779 2.584,0 4.241,0.78 4.241,2.048 0,0.974 -0.828,1.559 -2.632,1.852 l -5.119,0.78 c -5.119,0.78 -7.898,3.461 -7.898,7.703 0,5.216 4.193,8.385 11.116,8.385 3.754,0 7.556,-1.072 10.774,-3.12 l -3.754,-5.07 c -2.779,1.608 -5.265,2.34 -7.801,2.34 -2.047,0 -3.363,-0.732 -3.363,-1.853 0,-1.072 0.828,-1.608 3.022,-1.95 L 12.09,7.557 c 5.071,-0.732 7.947,-3.462 7.947,-7.508 0,-5.022 -4.924,-8.727 -11.603,-8.727 -4.875,0 -9.165,1.17 -12.188,3.364 z"
             style="fill:#2e2d2d;fill-opacity:1;fill-rule:nonzero;stroke:none"
             id="path1021" /></g><g
           id="g1023"
           transform="translate(215.1255,247.9735)"><path
             d="m 0,0 7.898,1.706 v -11.798 c 1.901,1.463 4.29,2.243 6.923,2.243 6.045,0 10.287,-4.29 10.287,-10.384 v -15.893 h -7.899 v 14.82 c 0,2.827 -1.852,4.681 -4.679,4.681 -1.999,0 -3.56,-0.731 -4.632,-2.048 V -34.126 H 0 Z"
             style="fill:#2e2d2d;fill-opacity:1;fill-rule:nonzero;stroke:none"
             id="path1025" /></g><path
           d="m 252.814,213.848 h -7.897 v 25.789 h 7.897 z m -8.288,32.517 c 0,2.389 1.951,4.339 4.34,4.339 2.389,0 4.339,-1.95 4.339,-4.339 0,-2.39 -1.95,-4.339 -4.339,-4.339 -2.389,0 -4.34,1.949 -4.34,4.339"
           style="fill:#2e2d2d;fill-opacity:1;fill-rule:nonzero;stroke:none"
           id="path1027" /><g
           id="g1029"
           transform="translate(265.5889,231.203)"><path
             d="m 0,0 v -9.02 c 1.365,-1.267 3.315,-1.998 5.461,-1.998 3.852,0 6.776,2.828 6.776,6.533 0,3.705 -2.973,6.533 -6.776,6.533 C 3.267,2.048 1.414,1.365 0,0 m -7.897,8.434 h 7.8 V 6.532 c 1.998,1.463 4.388,2.243 6.923,2.243 7.362,0 13.162,-5.85 13.162,-13.26 0,-7.411 -5.898,-13.212 -13.406,-13.212 -2.389,0 -4.632,0.585 -6.582,1.707 v -11.653 h -7.897 z"
             style="fill:#2e2d2d;fill-opacity:1;fill-rule:nonzero;stroke:none"
             id="path1031" /></g><g
           id="g1033"
           transform="translate(319.8232,222.0233)"><path
             d="m 0,0 5.108,5.108 -5.109,5.11 -15.542,-5.109 z"
             style="fill:#f9d207;fill-opacity:1;fill-rule:nonzero;stroke:none"
             id="path1035" /></g><g
           id="g1037"
           transform="translate(319.8232,222.0233)"><path
             d="M 0,0 -15.543,5.109 -0.001,10.218 -3.17,13.387 -28.353,5.109 -3.169,-3.169 Z"
             style="fill:#f9b00c;fill-opacity:1;fill-rule:nonzero;stroke:none"
             id="path1039" /></g><g
           id="g1041"
           transform="translate(336.8896,227.1317)"><path
             d="m 0,0 -0.001,0.001 v 0.001 l -11.234,11.234 -8.964,8.964 -5.98,-5.979 5.943,-5.943 3.169,-3.169 5.109,-5.109 -5.108,-5.108 -3.169,-3.169 -5.943,-5.942 5.98,-5.979 z"
             style="fill:#2e2d2d;fill-opacity:1;fill-rule:nonzero;stroke:none"
             id="path1043" /></g><g
           id="g1045"><g
             id="g1047" /><g
             id="g1071"><g
               clip-path="url(#clipPath1051)"
               opacity="0.199997"
               id="g1069"><g
                 transform="translate(192.063,185.5712)"
                 id="g1055"><path
                   d="m 0,0 c 3.266,-1.95 5.752,-2.778 8.385,-2.778 2.584,0 4.241,0.779 4.241,2.047 0,0.975 -0.828,1.56 -2.632,1.852 l -5.119,0.78 c -5.119,0.781 -7.898,3.462 -7.898,7.703 0,5.216 4.193,8.385 11.116,8.385 3.754,0 7.556,-1.072 10.774,-3.12 l -3.754,-5.07 c -2.779,1.609 -5.265,2.341 -7.801,2.341 -2.047,0 -3.363,-0.732 -3.363,-1.853 0,-1.073 0.828,-1.609 3.022,-1.95 l 5.119,-0.78 c 5.071,-0.732 7.947,-3.461 7.947,-7.508 0,-5.022 -4.924,-8.727 -11.603,-8.727 -4.875,0 -9.165,1.17 -12.188,3.365 z"
                   style="fill:#ed1c24;fill-opacity:1;fill-rule:nonzero;stroke:none"
                   id="path1053" /></g><g
                 transform="translate(192.063,258.3573)"
                 id="g1059"><path
                   d="m 0,0 c 3.266,-1.95 5.752,-2.778 8.385,-2.778 2.584,0 4.241,0.779 4.241,2.047 0,0.975 -0.828,1.56 -2.632,1.852 l -5.119,0.78 c -5.119,0.781 -7.898,3.462 -7.898,7.703 0,5.216 4.193,8.385 11.116,8.385 3.754,0 7.556,-1.072 10.774,-3.12 l -3.754,-5.07 c -2.779,1.609 -5.265,2.341 -7.801,2.341 -2.047,0 -3.363,-0.732 -3.363,-1.853 0,-1.073 0.828,-1.609 3.022,-1.95 l 5.119,-0.78 c 5.071,-0.732 7.947,-3.461 7.947,-7.508 0,-5.022 -4.924,-8.727 -11.603,-8.727 -4.875,0 -9.165,1.17 -12.188,3.365 z"
                   style="fill:none;stroke:#ed1c24;stroke-width:0.5;stroke-linecap:butt;stroke-linejoin:miter;stroke-miterlimit:10;stroke-dasharray:none;stroke-opacity:1"
                   id="path1057" /></g><g
                 transform="translate(70.2197,222.038)"
                 id="g1063"><path
                   d="m 0,0 c 3.266,-1.95 5.752,-2.779 8.385,-2.779 2.584,0 4.241,0.78 4.241,2.048 0,0.974 -0.828,1.559 -2.632,1.852 l -5.119,0.78 c -5.119,0.78 -7.898,3.461 -7.898,7.703 0,5.216 4.193,8.385 11.116,8.385 3.754,0 7.556,-1.072 10.774,-3.12 l -3.754,-5.07 c -2.779,1.608 -5.265,2.34 -7.801,2.34 -2.047,0 -3.363,-0.732 -3.363,-1.853 0,-1.072 0.828,-1.608 3.022,-1.95 L 12.09,7.557 c 5.071,-0.732 7.947,-3.462 7.947,-7.508 0,-5.022 -4.924,-8.727 -11.603,-8.727 -4.875,0 -9.165,1.17 -12.188,3.364 z"
                   style="fill:none;stroke:#ed1c24;stroke-width:0.5;stroke-linecap:butt;stroke-linejoin:miter;stroke-miterlimit:10;stroke-dasharray:none;stroke-opacity:1"
                   id="path1061" /></g><g
                 transform="translate(340.6436,222.038)"
                 id="g1067"><path
                   d="m 0,0 c 3.267,-1.95 5.753,-2.779 8.386,-2.779 2.583,0 4.241,0.78 4.241,2.048 0,0.974 -0.829,1.559 -2.633,1.852 l -5.119,0.78 c -5.119,0.78 -7.897,3.461 -7.897,7.703 0,5.216 4.192,8.385 11.115,8.385 3.754,0 7.556,-1.072 10.774,-3.12 l -3.754,-5.07 c -2.779,1.608 -5.265,2.34 -7.801,2.34 -2.046,0 -3.363,-0.732 -3.363,-1.853 0,-1.072 0.828,-1.608 3.023,-1.95 l 5.119,-0.779 c 5.07,-0.732 7.946,-3.462 7.946,-7.508 0,-5.022 -4.924,-8.727 -11.602,-8.727 -4.876,0 -9.166,1.17 -12.189,3.364 z"
                   style="fill:none;stroke:#ed1c24;stroke-width:0.5;stroke-linecap:butt;stroke-linejoin:miter;stroke-miterlimit:10;stroke-dasharray:none;stroke-opacity:1"
                   id="path1065" /></g></g></g></g><g
           id="g1073"><g
             id="g1075" /><g
             id="g1085"><g
               clip-path="url(#clipPath1079)"
               opacity="0.199997"
               id="g1083"><path
                 d="M 360.681,176.893 H 66.466 v 99.453 h 294.215 z"
                 style="fill:none;stroke:#ed1c24;stroke-width:0.5;stroke-linecap:butt;stroke-linejoin:miter;stroke-miterlimit:10;stroke-dasharray:none;stroke-opacity:1"
                 id="path1081" /></g></g></g><g
           id="g1087"><g
             id="g1089" /><g
             id="g1099"><g
               clip-path="url(#clipPath1093)"
               opacity="0.199997"
               id="g1097"><path
                 d="M 336.89,203.56 H 90.257 v 46.119 H 336.89 Z"
                 style="fill:none;stroke:#ed1c24;stroke-width:0.5;stroke-linecap:butt;stroke-linejoin:miter;stroke-miterlimit:10;stroke-dasharray:none;stroke-opacity:1"
                 id="path1095" /></g></g></g><g
           id="g1101"><g
             id="g1103" /><g
             id="g1115"><g
               clip-path="url(#clipPath1107)"
               opacity="0.199997"
               id="g1113"><g
                 transform="translate(0,144.0732)"
                 id="g1111"><path
                   d="M 0,0 H 432"
                   style="fill:none;stroke:#2e2d2d;stroke-width:0.5;stroke-linecap:butt;stroke-linejoin:miter;stroke-miterlimit:10;stroke-dasharray:none;stroke-opacity:1"
                   id="path1109" /></g></g></g></g><g
           id="g1117"><g
             id="g1119" /><g
             id="g1131"><g
               clip-path="url(#clipPath1123)"
               opacity="0.5"
               id="g1129"><text
                 transform="matrix(1,0,0,-1,66.4658,167.835)"
                 style="font-variant:normal;font-weight:bold;font-stretch:normal;font-size:7px;font-family:'Red Hat Display';-inkscape-font-specification:RedHatDisplay-Bold;writing-mode:lr-tb;fill:#ed1c24;fill-opacity:1;fill-rule:nonzero;stroke:none"
                 id="text1127"><tspan
                   x="0 6.3839998 8.302 12.663 14.581 21.0987 25.4597 32.0117 33.6287 37.562698 39.480701 43.778702 47.873699 50.932701 52.549702 56.196701 60.8657 64.960701 68.7547"
                   y="0"
                   sodipodi:role="line"
                   id="tspan1125">Minimum clear space</tspan></text></g></g></g></g></g></g></svg>
