<?xml version="1.0" encoding="utf-8"?>
<!-- Generator: Adobe Illustrator 23.0.6, SVG Export Plug-In . SVG Version: 6.00 Build 0)  -->
<svg version="1.1" id="Layer_1" xmlns="http://www.w3.org/2000/svg" xmlns:xlink="http://www.w3.org/1999/xlink" x="0px" y="0px"
	 viewBox="0 0 432 288" style="enable-background:new 0 0 432 288;" xml:space="preserve">
<style type="text/css">
	.st0{fill:#333333;}
	.st1{fill:#FED402;}
	.st2{fill:#FDB716;}
	.st3{fill:#FFFFFF;}
</style>
<rect y="144" class="st0" width="432" height="144"/>
<g>
	<path d="M165.042-489.212c4.144,3.364,7.41,4.729,11.359,4.729c3.851,0,6.143-1.219,6.143-3.315c0-1.901-1.316-2.828-4.729-3.413
		l-7.508-1.316c-5.558-0.975-8.629-4.339-8.629-9.36c0-6.63,5.265-10.628,13.992-10.628c5.07,0,10.579,1.853,14.333,4.875
		l-4.437,6.191c-3.607-2.779-6.874-4.046-10.481-4.046c-3.413,0-5.509,1.122-5.509,2.974c0,1.706,1.17,2.535,4.047,3.022l7.069,1.17
		c6.582,1.073,10.043,4.437,10.043,9.702c0,6.923-5.704,11.213-14.967,11.213c-5.509,0-11.165-2.096-15.406-5.704L165.042-489.212z"
		/>
	<path d="M194.59-512.028h17.989c6.728,0,11.603,4.68,11.603,11.067c0,6.191-4.973,10.823-11.603,10.823h-9.604v12.237h-8.385
		V-512.028z M202.975-504.861v7.8h8.629c2.438,0,4.095-1.56,4.095-3.851c0-2.34-1.657-3.949-4.095-3.949H202.975z"/>
	<path d="M233.937-512.028h9.604l13.797,34.126h-9.068l-3.12-8.239H231.84l-3.169,8.239h-8.727L233.937-512.028z M242.663-492.819
		l-4.095-10.92l-4.192,10.92H242.663z"/>
	<path d="M262.168-486.091c3.266,1.95,5.752,2.779,8.385,2.779c2.583,0,4.241-0.78,4.241-2.047c0-0.975-0.829-1.56-2.632-1.853
		l-5.119-0.78c-5.119-0.78-7.898-3.461-7.898-7.703c0-5.216,4.193-8.385,11.116-8.385c3.754,0,7.556,1.072,10.774,3.12l-3.754,5.07
		c-2.779-1.609-5.265-2.34-7.8-2.34c-2.047,0-3.364,0.731-3.364,1.853c0,1.073,0.829,1.609,3.022,1.95l5.119,0.78
		c5.07,0.731,7.946,3.461,7.946,7.508c0,5.021-4.924,8.727-11.603,8.727c-4.875,0-9.166-1.17-12.188-3.364L262.168-486.091z"/>
	<path d="M285.231-512.028l7.898-1.706v11.798c1.901-1.462,4.29-2.243,6.923-2.243c6.045,0,10.287,4.29,10.287,10.384v15.893h-7.898
		v-14.82c0-2.828-1.853-4.681-4.68-4.681c-1.999,0-3.559,0.731-4.631,2.048v17.453h-7.898V-512.028z"/>
	<path d="M314.632-510.419c0-2.389,1.95-4.339,4.339-4.339c2.389,0,4.339,1.95,4.339,4.339c0,2.389-1.95,4.339-4.339,4.339
		C316.582-506.08,314.632-508.029,314.632-510.419z M322.92-477.901h-7.898v-25.79h7.898V-477.901z"/>
	<path d="M327.796-503.691h7.801v1.901c1.998-1.463,4.388-2.243,6.923-2.243c7.361,0,13.162,5.85,13.162,13.26
		c0,7.411-5.898,13.212-13.406,13.212c-2.389,0-4.632-0.585-6.582-1.707v11.652h-7.897V-503.691z M335.694-495.257v9.019
		c1.365,1.268,3.315,1.999,5.461,1.999c3.852,0,6.776-2.828,6.776-6.533s-2.974-6.533-6.776-6.533
		C338.96-497.304,337.108-496.622,335.694-495.257z"/>
</g>
<polygon points="411.847,-491.186 411.848,-491.187 387.649,-515.386 381.67,-509.406 399.89,-491.185 381.671,-472.966 
	387.65,-466.986 411.849,-491.185 "/>
<g>
	<path class="st0" d="M148.676,75.958c4.144,3.364,7.41,4.729,11.359,4.729c3.851,0,6.143-1.219,6.143-3.315
		c0-1.901-1.316-2.828-4.729-3.413l-7.508-1.316c-5.558-0.975-8.629-4.339-8.629-9.36c0-6.63,5.265-10.628,13.992-10.628
		c5.07,0,10.579,1.853,14.333,4.875l-4.437,6.191c-3.607-2.779-6.874-4.046-10.481-4.046c-3.413,0-5.509,1.122-5.509,2.974
		c0,1.706,1.17,2.535,4.047,3.022l7.069,1.17c6.582,1.073,10.043,4.437,10.043,9.702c0,6.923-5.704,11.213-14.967,11.213
		c-5.509,0-11.165-2.096-15.406-5.704L148.676,75.958z"/>
	<path class="st0" d="M178.224,53.142h17.989c6.728,0,11.603,4.68,11.603,11.067c0,6.191-4.973,10.823-11.603,10.823h-9.604v12.237
		h-8.385V53.142z M186.61,60.309v7.8h8.629c2.438,0,4.095-1.56,4.095-3.851c0-2.34-1.657-3.949-4.095-3.949H186.61z"/>
	<path class="st0" d="M217.571,53.142h9.604l13.797,34.126h-9.068l-3.12-8.239h-13.309l-3.169,8.239h-8.727L217.571,53.142z
		 M226.298,72.35l-4.095-10.92l-4.192,10.92H226.298z"/>
	<path class="st0" d="M245.803,79.078c3.266,1.95,5.752,2.779,8.385,2.779c2.584,0,4.241-0.78,4.241-2.047
		c0-0.975-0.829-1.56-2.632-1.853l-5.119-0.78c-5.119-0.78-7.898-3.461-7.898-7.703c0-5.216,4.193-8.385,11.116-8.385
		c3.754,0,7.556,1.072,10.774,3.12l-3.754,5.07c-2.779-1.609-5.265-2.34-7.8-2.34c-2.047,0-3.364,0.731-3.364,1.853
		c0,1.073,0.829,1.609,3.022,1.95l5.119,0.78c5.07,0.731,7.946,3.461,7.946,7.508c0,5.021-4.924,8.727-11.603,8.727
		c-4.875,0-9.166-1.17-12.188-3.364L245.803,79.078z"/>
	<path class="st0" d="M268.865,53.142l7.898-1.706v11.798c1.901-1.462,4.29-2.243,6.923-2.243c6.045,0,10.287,4.29,10.287,10.384
		v15.893h-7.898v-14.82c0-2.828-1.853-4.681-4.68-4.681c-1.999,0-3.559,0.731-4.631,2.048v17.453h-7.898V53.142z"/>
	<path class="st0" d="M298.266,54.751c0-2.389,1.95-4.339,4.339-4.339c2.389,0,4.339,1.95,4.339,4.339
		c0,2.389-1.95,4.339-4.339,4.339C300.217,59.09,298.266,57.14,298.266,54.751z M306.554,87.268h-7.898v-25.79h7.898V87.268z"/>
	<path class="st0" d="M311.431,61.479h7.801v1.901c1.998-1.463,4.388-2.243,6.923-2.243c7.361,0,13.162,5.85,13.162,13.26
		c0,7.411-5.898,13.212-13.406,13.212c-2.389,0-4.632-0.585-6.582-1.707v11.652h-7.897V61.479z M319.328,69.913v9.019
		c1.365,1.268,3.315,1.999,5.461,1.999c3.852,0,6.776-2.828,6.776-6.533s-2.974-6.533-6.776-6.533
		C322.595,67.865,320.742,68.548,319.328,69.913z"/>
</g>
<g>
	<g>
		<polygon class="st1" points="99.088,70.205 126.322,61.253 135.274,70.205 126.322,79.157 		"/>
		<path class="st2" d="M125.778,63.538l6.668,6.668l-6.668,6.668l-20.285-6.668L125.778,63.538 M126.867,58.969L92.683,70.205
			l34.184,11.236l11.236-11.236L126.867,58.969L126.867,58.969z"/>
	</g>
	<polygon class="st0" points="138.101,70.205 138.102,70.204 117.903,50.006 111.924,55.985 126.144,70.206 111.925,84.425 
		117.904,90.405 138.103,70.206 	"/>
</g>
<rect y="-176.487" class="st0" width="432" height="144"/>
<g>
	<path class="st0" d="M94.937-244.529c4.144,3.364,7.41,4.729,11.359,4.729c3.851,0,6.143-1.219,6.143-3.315
		c0-1.901-1.316-2.828-4.729-3.413l-7.508-1.316c-5.558-0.975-8.629-4.339-8.629-9.36c0-6.63,5.265-10.628,13.992-10.628
		c5.07,0,10.579,1.853,14.333,4.875l-4.437,6.191c-3.607-2.779-6.874-4.046-10.481-4.046c-3.413,0-5.509,1.122-5.509,2.974
		c0,1.706,1.17,2.535,4.047,3.022l7.069,1.17c6.582,1.073,10.043,4.437,10.043,9.702c0,6.923-5.704,11.213-14.967,11.213
		c-5.509,0-11.165-2.096-15.406-5.704L94.937-244.529z"/>
	<path class="st0" d="M124.485-267.345h17.989c6.728,0,11.603,4.68,11.603,11.067c0,6.191-4.973,10.823-11.603,10.823h-9.604v12.237
		h-8.385V-267.345z M132.87-260.179v7.8h8.629c2.438,0,4.095-1.56,4.095-3.851c0-2.34-1.657-3.949-4.095-3.949H132.87z"/>
	<path class="st0" d="M163.831-267.345h9.604l13.797,34.126h-9.068l-3.12-8.239h-13.309l-3.169,8.239h-8.727L163.831-267.345z
		 M172.558-248.137l-4.095-10.92l-4.192,10.92H172.558z"/>
	<path class="st0" d="M192.063-241.409c3.266,1.95,5.752,2.779,8.385,2.779c2.583,0,4.241-0.78,4.241-2.047
		c0-0.975-0.829-1.56-2.632-1.853l-5.119-0.78c-5.119-0.78-7.898-3.461-7.898-7.703c0-5.216,4.193-8.385,11.116-8.385
		c3.754,0,7.556,1.072,10.774,3.12l-3.754,5.07c-2.779-1.609-5.265-2.34-7.8-2.34c-2.047,0-3.364,0.731-3.364,1.853
		c0,1.073,0.829,1.609,3.022,1.95l5.119,0.78c5.07,0.731,7.946,3.461,7.946,7.508c0,5.021-4.924,8.727-11.603,8.727
		c-4.875,0-9.166-1.17-12.188-3.364L192.063-241.409z"/>
	<path class="st0" d="M215.126-267.345l7.898-1.706v11.798c1.901-1.462,4.29-2.243,6.923-2.243c6.045,0,10.287,4.29,10.287,10.384
		v15.893h-7.898v-14.82c0-2.828-1.853-4.681-4.68-4.681c-1.999,0-3.559,0.731-4.631,2.048v17.453h-7.898V-267.345z"/>
	<path class="st0" d="M244.527-265.736c0-2.389,1.95-4.339,4.339-4.339c2.389,0,4.339,1.95,4.339,4.339
		c0,2.389-1.95,4.339-4.339,4.339C246.477-261.397,244.527-263.347,244.527-265.736z M252.815-233.219h-7.898v-25.79h7.898V-233.219
		z"/>
	<path class="st0" d="M257.691-259.008h7.801v1.901c1.998-1.463,4.388-2.243,6.923-2.243c7.361,0,13.162,5.85,13.162,13.26
		c0,7.411-5.898,13.212-13.406,13.212c-2.389,0-4.632-0.585-6.582-1.707v11.652h-7.897V-259.008z M265.589-250.574v9.019
		c1.365,1.268,3.315,1.999,5.461,1.999c3.852,0,6.776-2.828,6.776-6.533s-2.974-6.533-6.776-6.533
		C268.855-252.622,267.003-251.939,265.589-250.574z"/>
</g>
<g>
	<polygon class="st1" points="297.876,-246.504 325.11,-255.455 334.062,-246.504 325.11,-237.552 	"/>
	<path class="st2" d="M324.565-253.171l6.668,6.668l-6.668,6.668l-20.285-6.668L324.565-253.171 M325.654-257.74l-34.184,11.236
		l34.184,11.236l11.236-11.236L325.654-257.74L325.654-257.74z"/>
</g>
<polygon class="st0" points="336.888,-246.504 336.889,-246.505 316.69,-266.703 310.711,-260.723 324.931,-246.503 
	310.712,-232.284 316.691,-226.304 336.89,-246.503 "/>
<g>
	<g>
		<path class="st3" d="M94.937-102.513c4.144,3.364,7.41,4.729,11.359,4.729c3.851,0,6.143-1.219,6.143-3.315
			c0-1.901-1.316-2.828-4.729-3.413l-7.508-1.316c-5.558-0.975-8.629-4.339-8.629-9.36c0-6.63,5.265-10.628,13.992-10.628
			c5.07,0,10.579,1.853,14.333,4.875l-4.437,6.191c-3.607-2.779-6.874-4.046-10.481-4.046c-3.413,0-5.509,1.122-5.509,2.974
			c0,1.706,1.17,2.535,4.047,3.022l7.069,1.17c6.582,1.073,10.043,4.437,10.043,9.702c0,6.923-5.704,11.213-14.967,11.213
			c-5.509,0-11.165-2.096-15.406-5.704L94.937-102.513z"/>
		<path class="st3" d="M124.485-125.329h17.989c6.728,0,11.603,4.68,11.603,11.067c0,6.191-4.973,10.823-11.603,10.823h-9.604
			v12.237h-8.385V-125.329z M132.87-118.162v7.8h8.629c2.438,0,4.095-1.56,4.095-3.851c0-2.34-1.657-3.949-4.095-3.949H132.87z"/>
		<path class="st3" d="M163.831-125.329h9.604l13.797,34.126h-9.068l-3.12-8.239h-13.309l-3.169,8.239h-8.727L163.831-125.329z
			 M172.558-106.12l-4.095-10.92l-4.192,10.92H172.558z"/>
		<path class="st3" d="M192.063-99.393c3.266,1.95,5.752,2.779,8.385,2.779c2.583,0,4.241-0.78,4.241-2.047
			c0-0.975-0.829-1.56-2.632-1.853l-5.119-0.78c-5.119-0.78-7.898-3.461-7.898-7.703c0-5.216,4.193-8.385,11.116-8.385
			c3.754,0,7.556,1.072,10.774,3.12l-3.754,5.07c-2.779-1.609-5.265-2.34-7.8-2.34c-2.047,0-3.364,0.731-3.364,1.853
			c0,1.073,0.829,1.609,3.022,1.95l5.119,0.78c5.07,0.731,7.946,3.461,7.946,7.508c0,5.021-4.924,8.727-11.603,8.727
			c-4.875,0-9.166-1.17-12.188-3.364L192.063-99.393z"/>
		<path class="st3" d="M215.126-125.329l7.898-1.706v11.798c1.901-1.462,4.29-2.243,6.923-2.243c6.045,0,10.287,4.29,10.287,10.384
			v15.893h-7.898v-14.82c0-2.828-1.853-4.681-4.68-4.681c-1.999,0-3.559,0.731-4.631,2.048v17.453h-7.898V-125.329z"/>
		<path class="st3" d="M244.527-123.72c0-2.389,1.95-4.339,4.339-4.339c2.389,0,4.339,1.95,4.339,4.339
			c0,2.389-1.95,4.339-4.339,4.339C246.477-119.381,244.527-121.331,244.527-123.72z M252.815-91.202h-7.898v-25.79h7.898V-91.202z"
			/>
		<path class="st3" d="M257.691-116.992h7.801v1.901c1.998-1.463,4.388-2.243,6.923-2.243c7.361,0,13.162,5.85,13.162,13.26
			c0,7.411-5.898,13.212-13.406,13.212c-2.389,0-4.632-0.585-6.582-1.707v11.652h-7.897V-116.992z M265.589-108.558v9.019
			c1.365,1.268,3.315,1.999,5.461,1.999c3.852,0,6.776-2.828,6.776-6.533s-2.974-6.533-6.776-6.533
			C268.855-110.606,267.003-109.923,265.589-108.558z"/>
	</g>
	<g>
		<g>
			<polygon class="st1" points="297.876,-104.487 325.11,-113.439 334.062,-104.487 325.11,-95.535 			"/>
			<path class="st2" d="M324.565-111.155l6.668,6.668l-6.668,6.668l-20.285-6.668L324.565-111.155 M325.654-115.723l-34.184,11.236
				l34.184,11.236l11.236-11.236L325.654-115.723L325.654-115.723z"/>
		</g>
		<polygon class="st3" points="336.888,-104.488 336.889,-104.488 316.69,-124.686 310.711,-118.707 324.931,-104.487 
			310.712,-90.267 316.691,-84.288 336.89,-104.486 		"/>
	</g>
</g>
</svg>
