<?xml version="1.0" encoding="utf-8"?>
<!-- Generator: Adobe Illustrator 23.0.6, SVG Export Plug-In . SVG Version: 6.00 Build 0)  -->
<svg version="1.1" id="Layer_1" xmlns="http://www.w3.org/2000/svg" xmlns:xlink="http://www.w3.org/1999/xlink" x="0px" y="0px"
	 viewBox="0 0 432 82.163" style="enable-background:new 0 0 432 82.163;" xml:space="preserve">
<style type="text/css">
	.st0{fill:none;}
	.st1{fill:#FED402;}
	.st2{fill:#FDB716;}
	.st3{fill:#333333;}
</style>
<g>
	<path d="M165.042-199.643c4.144,3.364,7.41,4.729,11.359,4.729c3.851,0,6.143-1.219,6.143-3.315c0-1.901-1.316-2.828-4.729-3.413
		l-7.508-1.316c-5.558-0.975-8.629-4.339-8.629-9.36c0-6.63,5.265-10.628,13.992-10.628c5.07,0,10.579,1.853,14.333,4.875
		l-4.437,6.191c-3.607-2.779-6.874-4.046-10.481-4.046c-3.413,0-5.509,1.122-5.509,2.974c0,1.706,1.17,2.535,4.047,3.022l7.069,1.17
		c6.582,1.073,10.043,4.437,10.043,9.702c0,6.923-5.704,11.213-14.967,11.213c-5.509,0-11.165-2.096-15.406-5.704L165.042-199.643z"
		/>
	<path d="M194.59-222.459h17.989c6.728,0,11.603,4.68,11.603,11.067c0,6.191-4.973,10.823-11.603,10.823h-9.604v12.237h-8.385
		V-222.459z M202.975-215.292v7.8h8.629c2.438,0,4.095-1.56,4.095-3.851c0-2.34-1.657-3.949-4.095-3.949H202.975z"/>
	<path d="M233.937-222.459h9.604l13.797,34.126h-9.068l-3.12-8.239H231.84l-3.169,8.239h-8.727L233.937-222.459z M242.663-203.25
		l-4.095-10.92l-4.192,10.92H242.663z"/>
	<path d="M262.168-196.523c3.266,1.95,5.752,2.779,8.385,2.779c2.583,0,4.241-0.78,4.241-2.047c0-0.975-0.829-1.56-2.632-1.853
		l-5.119-0.78c-5.119-0.78-7.898-3.461-7.898-7.703c0-5.216,4.193-8.385,11.116-8.385c3.754,0,7.556,1.072,10.774,3.12l-3.754,5.07
		c-2.779-1.609-5.265-2.34-7.8-2.34c-2.047,0-3.364,0.731-3.364,1.853c0,1.073,0.829,1.609,3.022,1.95l5.119,0.78
		c5.07,0.731,7.946,3.461,7.946,7.508c0,5.021-4.924,8.727-11.603,8.727c-4.875,0-9.166-1.17-12.188-3.364L262.168-196.523z"/>
	<path d="M285.231-222.459l7.898-1.706v11.798c1.901-1.462,4.29-2.243,6.923-2.243c6.045,0,10.287,4.29,10.287,10.384v15.893h-7.898
		v-14.82c0-2.828-1.853-4.681-4.68-4.681c-1.999,0-3.559,0.731-4.631,2.048v17.453h-7.898V-222.459z"/>
	<path d="M314.632-220.85c0-2.389,1.95-4.339,4.339-4.339c2.389,0,4.339,1.95,4.339,4.339c0,2.389-1.95,4.339-4.339,4.339
		C316.582-216.511,314.632-218.461,314.632-220.85z M322.92-188.332h-7.898v-25.79h7.898V-188.332z"/>
	<path d="M327.796-214.122h7.801v1.901c1.998-1.463,4.388-2.243,6.923-2.243c7.361,0,13.162,5.85,13.162,13.26
		c0,7.411-5.898,13.212-13.406,13.212c-2.389,0-4.632-0.585-6.582-1.707v11.652h-7.897V-214.122z M335.694-205.688v9.019
		c1.365,1.268,3.315,1.999,5.461,1.999c3.852,0,6.776-2.828,6.776-6.533s-2.974-6.533-6.776-6.533
		C338.96-207.736,337.108-207.053,335.694-205.688z"/>
</g>
<polygon points="411.847,-201.618 411.848,-201.618 387.649,-225.817 381.67,-219.837 399.89,-201.617 381.671,-183.397 
	387.65,-177.418 411.849,-201.616 "/>
<path class="st0" d="M90.385,17.248H75.346v13.595h15.039c4.249,0,7.137-2.719,7.137-6.712
	C97.523,20.052,94.634,17.248,90.385,17.248z"/>
<path class="st0" d="M316.172,30.418c-3.824,0-7.053,1.19-9.518,3.569v15.719c2.379,2.209,5.778,3.483,9.518,3.483
	c6.713,0,11.81-4.928,11.81-11.386S322.8,30.418,316.172,30.418z"/>
<polygon class="st0" points="130.072,38.235 144.516,38.235 137.379,19.203 "/>
<polygon class="st1" points="401.177,49.986 410.08,41.082 401.176,32.178 374.089,41.082 "/>
<polygon class="st2" points="401.177,49.986 374.089,41.082 401.176,32.178 395.653,26.655 351.763,41.082 395.654,55.508 "/>
<g>
	<path class="st3" d="M36.509,28.634l-12.32-2.039c-5.013-0.849-7.053-2.294-7.053-5.268c0-3.229,3.654-5.183,9.602-5.183
		c6.287,0,11.98,2.209,18.268,7.052l7.732-10.791c-6.542-5.268-16.143-8.496-24.98-8.496c-15.209,0-24.385,6.967-24.385,18.523
		c0,8.752,5.353,14.614,15.039,16.314l13.085,2.294c5.948,1.019,8.242,2.634,8.242,5.948c0,3.653-3.994,5.777-10.706,5.777
		c-6.883,0-12.575-2.379-19.798-8.242L1.078,55.144c7.392,6.287,17.248,9.941,26.85,9.941c16.143,0,26.085-7.477,26.085-19.542
		C54.013,36.366,47.98,30.503,36.509,28.634z"/>
	<path class="st3" d="M112.307,24.046c0-11.131-8.496-19.288-20.222-19.288H60.732v59.477h14.614V42.908h16.738
		C103.64,42.908,112.307,34.837,112.307,24.046z M90.385,30.843H75.346V17.248h15.039c4.249,0,7.137,2.804,7.137,6.883
		C97.523,28.124,94.634,30.843,90.385,30.843z"/>
	<path class="st3" d="M129.307,4.758l-24.385,59.477h15.209l5.523-14.36h23.196l5.438,14.36h15.804L146.046,4.758H129.307z
		 M130.072,38.235l7.307-19.033l7.137,19.033H130.072z"/>
	<path class="st3" d="M199.583,36.79l-8.922-1.359c-3.824-0.595-5.268-1.529-5.268-3.399c0-1.954,2.294-3.229,5.863-3.229
		c4.418,0,8.752,1.275,13.595,4.079l6.542-8.837c-5.608-3.569-12.235-5.438-18.777-5.438c-12.065,0-19.373,5.523-19.373,14.614
		c0,7.392,4.843,12.065,13.765,13.425l8.922,1.36c3.144,0.51,4.588,1.529,4.588,3.229c0,2.209-2.889,3.568-7.392,3.568
		c-4.589,0-8.922-1.444-14.614-4.843l-6.542,9.261c5.268,3.824,12.745,5.863,21.242,5.863c11.64,0,20.221-6.457,20.221-15.209
		C213.432,42.823,208.42,38.065,199.583,36.79z"/>
	<path class="st3" d="M244.536,18.438c-4.589,0-8.752,1.36-12.065,3.909V1.785l-13.765,2.973v59.477h13.765V33.817
		c1.869-2.294,4.588-3.569,8.072-3.569c4.928,0,8.157,3.23,8.157,8.158v25.83h13.765V36.536
		C262.464,25.915,255.072,18.438,244.536,18.438z"/>
	<path class="st3" d="M277.51,0c-4.164,0-7.563,3.399-7.563,7.562c0,4.164,3.399,7.562,7.563,7.562c4.163,0,7.562-3.398,7.562-7.562
		C285.072,3.399,281.673,0,277.51,0z"/>
	<rect x="270.627" y="19.288" class="st3" width="13.765" height="44.947"/>
	<path class="st3" d="M318.552,18.693c-4.418,0-8.583,1.359-12.065,3.909v-3.314h-13.596v62.875h13.764V61.856
		c3.399,1.955,7.308,2.974,11.471,2.974c13.085,0,23.365-10.111,23.365-23.026C341.491,28.889,331.382,18.693,318.552,18.693z
		 M316.172,53.189c-3.739,0-7.138-1.274-9.518-3.483V33.987c2.465-2.379,5.693-3.569,9.518-3.569c6.628,0,11.81,4.928,11.81,11.386
		S322.885,53.189,316.172,53.189z"/>
	<polygon class="st3" points="430.92,41.081 430.92,41.08 411.339,21.499 395.718,5.877 385.296,16.299 395.653,26.655 
		401.176,32.178 410.08,41.082 401.177,49.986 395.654,55.508 385.298,65.865 395.719,76.286 430.922,41.083 430.921,41.082 	"/>
</g>
</svg>
