<svg xmlns="http://www.w3.org/2000/svg" width="193" height="124" viewBox="0 0 193 124"><defs><style>.a{fill:#fff;stroke:#333;}.b{fill:rgba(255,255,255,0);}.b,.e{stroke:#000;}.c{opacity:0.8;}.d,.e,.g{fill:none;}.d{stroke:#fdb716;}.d,.e{stroke-linecap:round;stroke-linejoin:round;stroke-width:2px;}.f{stroke:none;}</style></defs><g transform="translate(-1173 -1608)"><g transform="translate(378.5 380.336)"><g class="a" transform="translate(794.5 1227.664)"><rect class="f" width="193" height="124" rx="4"/><rect class="g" x="0.5" y="0.5" width="192" height="123" rx="3.5"/></g><g class="b" transform="translate(951.5 1235.664)"><circle class="f" cx="3" cy="3" r="3"/><circle class="g" cx="3" cy="3" r="2.5"/></g><g class="b" transform="translate(961.5 1235.664)"><circle class="f" cx="3" cy="3" r="3"/><circle class="g" cx="3" cy="3" r="2.5"/></g><g class="b" transform="translate(971.5 1235.664)"><circle class="f" cx="3" cy="3" r="3"/><circle class="g" cx="3" cy="3" r="2.5"/></g></g><g class="c" transform="translate(1243 1642)"><circle class="d" cx="6.5" cy="6.5" r="6.5" transform="translate(0 44)"/><line class="d" y2="30" transform="translate(6 14)"/><path class="d" d="M232.426,48.853,224,40.426,232.426,32" transform="translate(-205.041 -32)"/><ellipse class="d" cx="6.5" cy="5.5" rx="6.5" ry="5.5" transform="translate(0 3)"/><circle class="d" cx="6.5" cy="6.5" r="6.5" transform="translate(34 44)"/><path class="d" d="M240,96h11.06a7.9,7.9,0,0,1,7.9,7.9v27.912" transform="translate(-218.934 -87.574)"/></g><g transform="translate(1249.463 1642)"><circle class="e" cx="6.5" cy="6.5" r="6.5" transform="translate(-0.463 44)"/><line class="e" y2="30" transform="translate(6.537 14)"/><path class="e" d="M232.426,48.853,224,40.426,232.426,32" transform="translate(-205.041 -32)"/><ellipse class="e" cx="6.5" cy="5.5" rx="6.5" ry="5.5" transform="translate(-0.463 3)"/><circle class="e" cx="6.5" cy="6.5" r="6.5" transform="translate(33.537 44)"/><path class="e" d="M240,96h11.06a7.9,7.9,0,0,1,7.9,7.9v27.912" transform="translate(-218.934 -87.574)"/></g></g></svg>